# xmcd
#
# Track frame offsets:
#  150
#  15697
#  28848
#  41816
#  54328
#  67946
#  88564
#  103380
#  118523
#  138194
#  151498
#  173747
#
# Disc length: 2507 seconds
#
# Revision: 0
# Processed by: cddbd v1.4PL0 Copyright (c) Steve Scherf et al.
# Submitted via: AltoMP3_Maker 3.0
#
DISCID=9a09c90c
DTITLE=Chris Stevens - Cuttin' The Grass
DYEAR=1900
DGENRE=
TTITLE0=Ocean of Diamonds
TTITLE1=Suzanne
TTITLE2=Walking in Jeruselum
TTITLE3=Tiny Broken Heart
TTITLE4=Goldrush
TTITLE5=Rocksalt and Nails
TTITLE6=Green in My Eyes
TTITLE7=Why Don't You Tell Me So
TTITLE8=Old Crossroad
TTITLE9=Lies
TTITLE10=Two Little Boys
TTITLE11=These Old Blues
EXTD=
EXTT0=
EXTT1=
EXTT2=
EXTT3=
EXTT4=
EXTT5=
EXTT6=
EXTT7=
EXTT8=
EXTT9=
EXTT10=
EXTT11=
PLAYORDER=
